<svg id="svg" version="1.1" xmlns="http://www.w3.org/2000/svg" xmlns:xlink="http://www.w3.org/1999/xlink" width="400" height="260.431654676259" viewBox="0, 0, 400,260.431654676259"><g id="svgg"><path id="path0" d="M302.512 14.944 C 297.587 16.303,295.579 21.330,297.067 28.580 C 298.325 34.708,297.187 38.176,293.365 39.864 C 291.084 40.871,290.134 40.114,289.121 36.482 C 287.278 29.871,282.688 26.753,276.612 27.984 C 266.154 30.102,263.855 29.516,259.437 23.608 C 254.264 16.692,250.646 14.835,246.523 16.980 C 243.017 18.805,241.068 22.532,240.344 28.795 C 239.603 35.205,238.721 36.153,231.018 38.825 C 224.488 41.089,222.553 42.409,219.477 46.698 C 217.289 49.748,215.595 50.229,213.506 48.395 C 211.803 46.900,211.762 46.662,211.581 37.264 C 211.390 27.337,211.262 26.727,208.885 24.364 C 204.166 19.672,198.789 21.192,189.707 29.787 C 185.043 34.201,184.403 34.260,176.095 31.034 C 164.853 26.670,158.549 29.333,158.577 38.436 C 158.589 42.256,158.541 42.091,161.387 48.078 C 163.655 52.851,163.645 55.725,161.356 56.790 C 159.916 57.460,158.843 57.035,156.001 54.668 C 152.088 51.410,149.896 51.238,139.478 53.374 C 130.683 55.177,128.954 55.125,126.775 52.995 C 125.040 51.298,121.182 46.912,119.693 44.943 C 114.752 38.414,110.712 37.429,106.053 41.618 C 102.842 44.505,102.403 45.773,102.153 52.899 C 101.791 63.225,100.881 64.300,88.990 68.445 C 80.511 71.401,76.857 75.018,76.348 80.960 C 75.989 85.142,74.927 85.099,69.837 80.700 C 66.312 77.654,62.722 77.268,59.713 79.613 C 56.931 81.780,56.346 83.404,56.016 89.881 C 55.871 92.733,55.558 95.741,55.254 97.199 C 54.776 99.495,54.738 100.759,54.729 114.658 C 54.716 135.681,54.841 135.320,46.804 137.573 C 45.212 138.019,41.915 138.959,39.479 139.661 C 30.322 142.298,28.188 142.903,25.016 143.759 C 23.225 144.242,19.824 145.272,17.459 146.047 C 15.094 146.822,12.104 147.767,10.814 148.147 C 4.170 150.105,1.430 154.455,2.880 160.744 C 3.572 163.744,7.999 167.068,15.038 169.872 C 16.441 170.431,18.645 171.381,19.935 171.984 C 21.225 172.586,23.336 173.490,24.625 173.993 C 25.915 174.496,28.365 175.546,30.070 176.325 C 31.775 177.104,34.205 178.141,35.470 178.630 C 36.735 179.118,39.738 180.454,42.142 181.597 C 44.547 182.741,47.314 183.976,48.291 184.341 C 54.476 186.655,55.768 188.221,56.165 193.876 C 56.261 195.238,56.575 197.466,56.863 198.827 C 57.268 200.741,57.436 202.930,57.603 208.469 C 57.772 214.048,57.937 216.184,58.348 218.111 C 58.778 220.124,58.881 221.609,58.899 226.059 C 58.936 235.419,59.323 237.001,62.301 239.979 C 67.307 244.985,71.773 243.897,80.391 235.571 C 82.254 233.771,84.775 231.548,85.993 230.631 C 87.212 229.714,89.264 228.010,90.554 226.844 C 91.844 225.677,93.876 223.985,95.070 223.083 C 96.264 222.181,98.522 220.232,100.089 218.751 C 109.531 209.828,111.620 209.331,122.345 213.453 C 124.208 214.169,127.316 215.336,129.251 216.046 C 131.186 216.756,134.410 217.976,136.417 218.759 C 138.423 219.541,142.176 220.898,144.756 221.776 C 147.336 222.653,150.736 223.898,152.313 224.542 C 153.889 225.186,156.645 226.217,158.436 226.833 C 160.228 227.450,162.749 228.393,164.039 228.930 C 165.329 229.467,168.554 230.641,171.205 231.539 C 173.857 232.436,177.785 233.873,179.935 234.730 C 192.862 239.886,197.183 240.068,200.840 235.607 C 203.886 231.892,203.330 227.661,199.191 223.062 C 198.095 221.844,196.560 219.988,195.781 218.937 C 195.001 217.887,192.780 215.353,190.845 213.305 C 188.910 211.258,186.563 208.562,185.629 207.314 C 184.696 206.066,182.789 203.841,181.392 202.370 C 179.995 200.899,178.106 198.709,177.196 197.503 C 176.285 196.296,174.294 193.961,172.771 192.313 C 171.248 190.664,169.429 188.554,168.728 187.622 C 168.027 186.691,166.617 184.932,165.596 183.713 C 164.574 182.495,163.169 180.736,162.474 179.805 C 161.779 178.873,160.191 176.995,158.945 175.632 C 152.796 168.902,153.538 167.926,171.687 158.873 C 181.946 153.755,195.324 148.103,203.257 145.535 C 204.906 145.001,208.072 143.888,210.293 143.061 C 214.502 141.493,220.322 139.515,223.453 138.589 C 229.579 136.775,233.320 135.677,237.003 134.609 C 243.074 132.849,256.711 129.385,261.238 128.453 C 263.388 128.011,267.023 127.200,269.316 126.651 C 271.609 126.103,274.541 125.457,275.831 125.217 C 277.121 124.977,280.030 124.324,282.297 123.766 C 284.564 123.207,287.671 122.624,289.202 122.469 C 293.717 122.013,295.036 121.455,297.481 118.964 C 301.248 115.125,301.370 112.168,297.965 107.194 C 295.497 103.590,297.364 101.781,304.495 100.864 C 305.785 100.699,309.479 100.032,312.704 99.384 C 316.340 98.652,319.903 98.106,322.085 97.946 C 324.020 97.804,326.700 97.462,328.040 97.185 C 329.381 96.909,331.785 96.611,333.382 96.522 C 334.980 96.433,337.752 96.090,339.544 95.761 C 341.336 95.431,344.091 95.090,345.668 95.003 C 347.244 94.916,349.590 94.623,350.879 94.352 C 352.169 94.081,353.928 93.781,354.788 93.684 C 355.648 93.587,357.876 93.232,359.739 92.895 C 361.603 92.558,364.667 92.216,366.548 92.135 C 368.430 92.054,371.127 91.744,372.542 91.447 C 374.254 91.086,376.813 90.832,380.195 90.686 C 384.244 90.512,385.648 90.352,387.101 89.899 C 395.652 87.233,398.449 79.809,392.863 74.598 C 389.966 71.895,391.448 72.052,368.860 72.052 L 349.316 72.052 346.580 72.701 C 343.353 73.466,333.035 73.681,331.178 73.022 C 328.262 71.987,328.227 68.072,331.105 64.887 C 332.982 62.809,335.029 62.169,340.680 61.894 C 347.439 61.565,350.902 58.630,350.864 53.265 C 350.842 50.118,350.190 48.982,345.800 44.441 C 340.204 38.653,339.891 37.684,341.508 31.140 C 343.464 23.221,342.096 17.695,337.642 15.521 C 334.440 13.958,332.549 14.341,325.288 18.027 C 318.207 21.622,318.594 21.632,311.672 17.647 C 306.764 14.821,304.925 14.278,302.512 14.944 M334.710 23.456 C 335.902 24.638,335.909 26.478,334.744 31.573 C 333.113 38.709,333.448 41.199,336.379 43.722 C 345.970 51.975,345.906 55.300,336.142 56.014 C 328.144 56.600,326.113 57.904,323.602 64.071 C 320.483 71.732,317.203 71.241,313.768 62.601 C 311.443 56.755,310.446 56.037,304.625 56.019 C 292.686 55.982,289.047 51.871,296.015 46.289 C 305.486 38.701,305.613 38.492,304.375 32.550 C 302.295 22.564,304.753 20.749,313.191 26.038 C 317.908 28.994,319.477 28.999,324.143 26.075 C 329.943 22.440,332.939 21.697,334.710 23.456 M252.591 25.799 C 253.788 26.679,255.259 28.384,257.313 31.270 C 260.736 36.081,262.949 36.848,269.254 35.413 C 272.596 34.652,279.062 34.561,280.337 35.257 C 283.658 37.070,282.911 40.182,277.382 47.579 C 271.919 54.887,271.957 54.617,275.399 61.698 C 278.375 67.820,278.889 69.573,278.136 71.030 C 277.035 73.163,275.206 73.126,268.161 70.830 C 261.159 68.547,260.636 68.691,254.593 74.561 C 249.237 79.765,247.133 80.900,245.266 79.592 C 243.746 78.527,243.548 77.561,243.380 70.358 C 243.161 60.978,243.378 61.330,235.219 57.143 C 226.911 52.880,225.220 50.741,227.818 47.783 C 228.908 46.542,229.765 46.148,236.012 44.022 C 244.301 41.201,245.356 40.147,246.041 34.007 C 246.717 27.950,247.364 26.099,249.121 25.202 C 250.267 24.616,251.201 24.776,252.591 25.799 M203.670 29.827 C 205.559 31.065,206.187 38.768,204.967 45.763 C 204.192 50.214,204.961 51.538,210.102 54.600 C 222.225 61.819,223.608 63.109,222.179 65.872 C 221.200 67.765,220.081 68.229,210.976 70.513 C 201.352 72.927,201.347 72.932,198.961 82.606 C 196.305 93.376,193.254 94.448,188.571 86.254 C 185.308 80.543,183.324 78.181,181.343 77.648 C 179.913 77.263,169.229 77.569,166.515 78.073 C 157.433 79.760,155.422 74.575,162.268 67.125 C 165.000 64.152,168.750 59.451,169.800 57.681 C 171.292 55.169,170.857 52.804,167.675 46.115 C 164.915 40.312,164.613 38.344,166.234 36.723 C 167.818 35.139,169.283 35.348,176.335 38.160 C 185.057 41.638,185.826 41.551,191.280 36.487 C 198.056 30.194,201.448 28.371,203.670 29.827 M113.316 48.136 C 114.690 48.784,118.185 52.355,120.400 55.375 C 125.627 62.498,126.002 62.631,135.522 60.716 C 148.623 58.081,150.049 58.038,151.394 60.245 C 152.610 62.239,152.096 63.822,148.322 69.713 C 139.575 83.365,139.662 82.276,146.396 94.015 C 150.101 100.476,150.559 102.118,149.104 103.742 L 148.313 104.625 146.013 104.588 C 144.124 104.557,142.490 104.243,136.863 102.829 C 129.422 100.959,127.997 100.801,126.146 101.641 C 124.638 102.325,120.362 106.516,117.781 109.841 C 113.454 115.415,110.802 116.874,108.565 114.911 C 106.932 113.477,106.793 112.655,106.606 103.322 C 106.373 91.634,107.038 92.511,94.652 87.563 C 87.724 84.796,86.201 83.971,85.092 82.389 C 83.022 79.435,84.850 76.829,90.327 74.925 C 94.944 73.320,102.415 70.287,103.821 69.446 C 106.599 67.785,107.805 64.026,108.126 56.026 C 108.434 48.348,109.696 46.429,113.316 48.136 M284.742 54.658 C 289.045 60.041,292.116 61.504,300.118 61.988 C 305.782 62.330,306.723 62.974,308.805 67.929 C 311.498 74.340,309.894 75.986,300.586 76.363 C 297.421 76.491,294.400 76.751,293.420 76.980 C 288.390 78.155,286.864 77.103,286.265 72.048 C 285.836 68.428,285.720 68.065,283.425 63.158 C 280.773 57.486,280.453 55.396,282.013 53.942 C 282.925 53.093,283.641 53.281,284.742 54.658 M235.272 65.160 C 237.051 66.475,237.232 67.327,237.428 75.309 C 237.687 85.824,237.864 85.498,231.140 86.892 C 225.730 88.013,221.478 88.864,219.384 89.244 C 218.292 89.443,215.643 90.024,213.497 90.535 C 205.267 92.498,203.507 91.254,205.181 84.659 C 206.698 78.682,207.379 78.154,216.691 75.730 C 225.494 73.439,227.164 72.379,229.866 67.369 C 231.554 64.241,233.148 63.590,235.272 65.160 M265.757 77.886 C 266.790 78.621,266.799 79.248,265.790 80.097 C 263.160 82.310,258.517 81.172,260.226 78.733 C 261.400 77.056,264.026 76.654,265.757 77.886 M377.068 78.146 C 384.653 78.348,386.134 78.642,386.604 80.039 C 387.576 82.929,383.484 84.671,375.684 84.686 C 374.261 84.689,372.187 84.939,370.232 85.344 C 368.307 85.743,365.391 86.098,362.756 86.255 C 360.380 86.396,357.381 86.745,356.091 87.030 C 354.801 87.315,353.422 87.550,353.025 87.553 C 352.629 87.555,350.855 87.845,349.083 88.198 C 347.311 88.551,344.176 88.962,342.116 89.111 C 340.057 89.261,337.668 89.558,336.808 89.772 C 335.948 89.985,333.603 90.280,331.596 90.427 C 329.590 90.574,326.802 90.929,325.401 91.215 C 324.001 91.501,321.303 91.841,319.408 91.971 C 317.208 92.122,313.840 92.634,310.098 93.387 C 306.873 94.036,303.238 94.699,302.020 94.861 C 300.801 95.022,298.749 95.367,297.459 95.627 C 296.169 95.886,294.410 96.176,293.550 96.270 C 291.963 96.444,287.645 97.243,282.215 98.366 C 276.406 99.568,272.419 100.310,270.228 100.597 C 269.010 100.757,265.902 101.393,263.322 102.011 C 260.743 102.630,258.104 103.217,257.459 103.316 C 256.814 103.415,253.883 104.067,250.945 104.764 C 248.007 105.461,244.840 106.162,243.909 106.321 C 242.977 106.480,237.721 107.720,232.228 109.077 C 226.736 110.433,220.990 111.784,219.460 112.078 C 217.929 112.373,214.567 113.299,211.987 114.136 C 209.407 114.974,204.690 116.318,201.505 117.124 C 197.569 118.119,190.596 120.303,179.746 123.938 C 165.260 128.792,161.938 130.001,154.397 133.171 C 153.107 133.713,150.723 134.697,149.098 135.358 C 147.473 136.019,144.717 137.290,142.974 138.182 C 141.231 139.074,138.983 140.125,137.980 140.517 C 135.757 141.386,133.437 142.802,133.427 143.294 C 133.415 143.908,136.258 143.440,138.709 142.425 C 139.917 141.925,142.065 141.265,143.482 140.958 C 144.899 140.651,147.173 139.956,148.534 139.414 C 151.678 138.161,157.870 136.199,160.912 135.491 C 162.202 135.190,166.248 133.965,169.902 132.767 C 173.557 131.569,177.733 130.289,179.183 129.924 C 180.633 129.559,183.097 128.859,184.660 128.369 C 186.223 127.879,190.900 126.632,195.054 125.598 C 199.207 124.564,204.248 123.220,206.254 122.610 C 210.939 121.186,216.753 119.852,225.016 118.305 C 226.450 118.037,229.499 117.353,231.793 116.786 C 234.087 116.219,237.077 115.620,238.438 115.455 C 239.799 115.291,241.620 114.993,242.486 114.793 C 243.352 114.594,245.443 114.249,247.133 114.027 C 248.823 113.806,250.635 113.508,251.161 113.367 C 251.687 113.225,253.701 112.876,255.635 112.592 C 257.570 112.307,260.033 111.886,261.107 111.656 C 262.322 111.396,264.937 111.189,268.013 111.108 C 271.695 111.012,273.666 110.833,275.700 110.409 C 281.368 109.227,289.796 109.691,291.377 111.271 C 293.695 113.590,291.692 115.638,286.418 116.341 C 284.894 116.544,281.772 117.177,279.479 117.747 C 277.186 118.317,274.020 119.040,272.443 119.352 C 270.866 119.665,267.935 120.329,265.929 120.827 C 263.922 121.326,261.049 121.959,259.544 122.235 C 256.305 122.829,239.873 127.025,232.834 129.056 C 230.111 129.841,226.358 130.918,224.495 131.447 C 222.632 131.977,219.818 132.871,218.241 133.435 C 216.664 133.999,214.261 134.797,212.899 135.208 C 211.537 135.620,209.485 136.336,208.339 136.800 C 207.192 137.264,203.909 138.440,201.042 139.414 C 178.659 147.021,148.689 162.258,146.709 167.038 C 145.810 169.210,147.027 171.612,151.373 176.247 C 153.007 177.989,155.231 180.586,156.316 182.020 C 157.402 183.453,158.715 185.094,159.235 185.668 C 159.755 186.241,160.980 187.765,161.957 189.055 C 162.934 190.345,164.938 192.691,166.411 194.267 C 167.883 195.844,169.866 198.167,170.818 199.431 C 171.769 200.694,173.696 202.937,175.099 204.415 C 176.503 205.892,178.389 208.083,179.292 209.283 C 180.194 210.484,182.435 213.049,184.271 214.984 C 186.107 216.919,188.452 219.616,189.482 220.977 C 190.512 222.339,191.850 224.039,192.455 224.756 C 195.692 228.591,195.374 231.401,191.703 231.401 C 190.133 231.401,186.751 230.387,181.759 228.419 C 179.466 227.515,175.889 226.219,173.811 225.538 C 171.733 224.857,168.743 223.776,167.166 223.135 C 165.590 222.494,162.717 221.410,160.782 220.727 C 158.847 220.043,156.208 219.046,154.919 218.511 C 153.629 217.976,150.014 216.669,146.886 215.607 C 143.758 214.545,140.123 213.221,138.808 212.665 C 137.493 212.109,134.893 211.126,133.029 210.480 C 131.166 209.834,128.599 208.874,127.325 208.345 C 123.699 206.841,113.643 203.526,112.191 203.355 C 110.391 203.144,108.971 203.587,107.272 204.890 C 101.807 209.077,100.160 210.433,97.850 212.643 C 96.417 214.014,94.248 215.888,93.029 216.806 C 91.811 217.724,89.818 219.381,88.599 220.488 C 87.381 221.594,85.270 223.344,83.909 224.376 C 82.547 225.408,79.963 227.690,78.167 229.447 C 71.366 236.100,67.567 237.083,65.589 232.704 C 65.113 231.651,65.039 230.760,64.863 223.974 C 64.717 218.333,64.558 215.988,64.237 214.723 C 63.924 213.494,63.744 211.030,63.579 205.733 C 63.397 199.884,63.243 197.946,62.803 195.961 C 62.455 194.394,62.180 191.908,62.054 189.186 C 61.747 182.578,61.937 182.787,52.941 179.159 C 49.980 177.965,45.857 176.171,43.779 175.174 C 41.700 174.176,39.053 172.999,37.895 172.557 C 36.738 172.116,34.336 171.089,32.560 170.276 C 30.783 169.463,28.329 168.412,27.107 167.941 C 25.886 167.469,23.948 166.644,22.801 166.108 C 21.655 165.572,19.244 164.530,17.444 163.793 C 10.390 160.906,8.466 158.280,11.398 155.545 C 12.408 154.602,21.241 151.402,26.059 150.232 C 26.990 150.006,29.511 149.299,31.661 148.661 C 36.219 147.308,41.255 145.873,47.818 144.056 C 55.635 141.892,58.513 140.664,59.647 139.010 C 60.613 137.600,60.713 135.693,60.719 118.697 C 60.723 103.178,60.752 102.145,61.254 99.805 C 61.546 98.443,61.886 95.736,62.011 93.789 C 62.464 86.690,64.175 84.938,68.046 87.611 C 70.443 89.266,89.555 108.672,91.731 111.661 C 96.531 118.252,105.542 126.311,108.421 126.588 C 110.299 126.768,121.766 123.257,130.293 119.891 C 131.798 119.296,133.967 118.571,135.114 118.278 C 136.261 117.985,140.194 116.766,143.855 115.568 C 147.517 114.371,152.266 112.921,154.409 112.348 C 156.553 111.774,158.834 111.115,159.479 110.885 C 160.124 110.654,161.779 110.179,163.157 109.830 C 164.535 109.480,166.997 108.775,168.629 108.263 C 171.833 107.257,205.606 98.811,209.251 98.104 C 210.469 97.867,213.149 97.269,215.206 96.773 C 220.401 95.522,234.964 92.617,237.710 92.284 C 238.958 92.132,241.948 91.530,244.355 90.946 C 246.812 90.349,250.271 89.720,252.248 89.510 C 254.182 89.304,256.879 88.900,258.241 88.611 C 259.603 88.322,261.303 88.080,262.020 88.073 C 262.736 88.066,264.261 87.887,265.407 87.676 C 266.554 87.466,268.606 87.114,269.967 86.894 C 271.329 86.675,274.085 86.216,276.091 85.874 C 278.098 85.532,280.741 85.181,281.965 85.093 C 283.189 85.005,284.831 84.762,285.613 84.553 C 286.396 84.345,288.693 83.998,290.718 83.783 C 292.744 83.568,295.206 83.210,296.191 82.986 C 297.255 82.744,300.304 82.486,303.713 82.349 C 307.857 82.183,310.169 81.965,312.052 81.562 C 314.079 81.128,316.135 80.955,321.303 80.785 C 326.288 80.621,328.306 80.457,329.381 80.128 C 330.509 79.782,332.507 79.644,338.762 79.480 C 345.180 79.312,347.212 79.168,349.316 78.734 C 350.749 78.438,352.274 78.150,352.704 78.094 C 354.054 77.920,369.856 77.953,377.068 78.146 M152.466 81.044 C 152.980 81.187,154.071 81.774,154.891 82.348 C 158.882 85.144,161.919 85.544,168.804 84.179 C 176.173 82.719,179.402 83.709,182.240 88.296 C 187.157 96.245,186.668 96.951,174.106 100.053 C 171.186 100.774,167.690 101.718,166.338 102.152 C 160.927 103.885,158.979 103.142,156.338 98.338 C 155.718 97.210,154.450 95.055,153.521 93.550 C 148.993 86.215,148.081 82.108,150.740 81.030 C 151.439 80.746,151.391 80.746,152.466 81.044 M88.092 92.244 C 93.336 93.624,98.891 96.484,99.863 98.303 C 101.209 100.824,100.515 107.369,98.856 107.785 C 96.589 108.354,83.448 94.999,83.393 92.070 C 83.382 91.468,85.429 91.543,88.092 92.244 M131.600 109.151 C 133.562 110.204,132.482 111.777,129.074 112.829 C 127.066 113.449,125.926 113.306,125.700 112.405 C 125.093 109.985,129.068 107.793,131.600 109.151 " stroke="none" fill="#fcfcfc" fill-rule="evenodd"></path></g></svg>
